<?xml version="1.0" encoding="utf-8"?>
<!-- Generator: Adobe Illustrator 18.0.0, SVG Export Plug-In . SVG Version: 6.00 Build 0)  -->
<!DOCTYPE svg PUBLIC "-//W3C//DTD SVG 1.1//EN" "http://www.w3.org/Graphics/SVG/1.1/DTD/svg11.dtd">
<svg version="1.1" id="Layer_1" xmlns="http://www.w3.org/2000/svg" xmlns:xlink="http://www.w3.org/1999/xlink" x="0px" y="0px"
	 viewBox="0 0 333.7 12.9" enable-background="new 0 0 333.7 12.9" xml:space="preserve">
<g>
	<path fill="#231F20" d="M333.8,9.1c0.2-0.3,0.1-1.1-0.4-1L333,9.5L333.8,9.1z"/>
	<path fill="#231F20" d="M330.5,6.7c-0.6,0.6-1.2,1.8-0.9,3c0.6-1.3,0.7-0.7,1.3-2.3c0.5-0.2,0.8,0.4,0.8,0.9c0.2-0.3,0.8,0.3,1-0.5
		c-0.6-1-1.4-1.1-2.3-0.2C330.3,7.3,330.5,6.9,330.5,6.7z"/>
	<path fill="#231F20" d="M283.2,4.6l0.3,0.2C283.4,4.7,283.3,4.6,283.2,4.6z"/>
	<path fill="#231F20" d="M253.9,3.9c0.2,0,0.3-0.2,0.3-0.3C254,3.7,253.8,3.8,253.9,3.9z"/>
	<path fill="#231F20" d="M248.8,2.4c0.1,0,0.2,0.1,0.3,0.1C249,2.4,248.9,2.3,248.8,2.4z"/>
	<path fill="#231F20" d="M283.2,4.6l-0.8-0.4C282.3,4.6,282.8,4.5,283.2,4.6z"/>
	<path fill="#231F20" d="M324,9.9c0.2-0.1,0.3-0.2,0.4-0.3c-0.1,0.1-0.3,0.1-0.4,0.1C324,9.7,324,9.8,324,9.9z"/>
	<path fill="#231F20" d="M296.1,3.5l0.2,0c0.1-0.2,0.1-0.3,0.2-0.5L296.1,3.5z"/>
	<path fill="#231F20" d="M306,3.3c-0.2,0-0.3,1.1-0.4,1.6c0.1-0.5,0.3-0.7,0.5-0.8C306.1,3.9,306.1,3.7,306,3.3z"/>
	<path fill="#231F20" d="M321.7,5.3l0.3-0.2C322,5.2,321.8,5.3,321.7,5.3z"/>
	<path fill="#231F20" d="M289,3.3c0-0.2-0.1-0.3-0.1-0.4C288.9,3,288.9,3.2,289,3.3z"/>
	<path fill="#231F20" d="M11.5,11.7c0-0.1,0-0.1,0-0.2C11.5,11.7,11.5,11.7,11.5,11.7z"/>
	<path fill="#231F20" d="M0,6.2l0.2-0.1c0-0.2,0-0.4,0-0.6L0,6.2z"/>
	<path fill="#231F20" d="M239.7,1C239.7,1,239.7,1,239.7,1C240,0.9,239.8,0.9,239.7,1z"/>
	<path fill="#231F20" d="M155.6,1.8c1,1-1.6,1.3-0.1,2.4C155.3,3.8,156.8,2.5,155.6,1.8z"/>
	<path fill="#231F20" d="M323.7,9.7c-0.1,0-0.3,0-0.4,0C323.5,9.8,323.6,9.8,323.7,9.7z"/>
	<path fill="#231F20" d="M155.5,4.2C155.5,4.2,155.5,4.2,155.5,4.2l0.1,0.1C155.5,4.3,155.5,4.3,155.5,4.2z"/>
	<path fill="#231F20" d="M218.6,1.7c0,0.2,0.1,0.3,0.2,0.5C218.8,2,218.7,1.9,218.6,1.7z"/>
	<path fill="#231F20" d="M234.3,3.3l-0.4-0.2C234.1,3.2,234.2,3.3,234.3,3.3z"/>
	<path fill="#231F20" d="M210.4,3.3c-0.2-0.1-0.3-0.2-0.6-0.1c0,0.1,0.1,0.1,0.1,0.1C210,3.1,210.2,3.1,210.4,3.3z"/>
	<path fill="#231F20" d="M201.9,3.3c0,0.1,0.1,0.2,0.2,0.2c0.1,0,0.2,0,0.3-0.1L201.9,3.3z"/>
	<path fill="#231F20" d="M37.4,11.2c-0.2-0.3-0.3-0.7-0.4-1C37.1,11,35.9,11.3,37.4,11.2z"/>
	<path fill="#231F20" d="M324,9.2c0,0.3-0.1,0.4-0.3,0.5c0.1,0,0.2,0,0.3-0.1C324,9.5,324,9.3,324,9.2z"/>
	<path fill="#231F20" d="M210.1,12.1l-1.4-0.2C209.1,12.1,209.6,12.1,210.1,12.1z"/>
	<path fill="#231F20" d="M98.3,11L98,11.2C98.2,11.2,98.3,11.2,98.3,11z"/>
	<path fill="#231F20" d="M204.7,12.1c-0.2-0.4-0.5-0.6-0.8-0.8c-0.1,0.1-0.1,0.2-0.2,0.3L204.7,12.1z"/>
	<path fill="#231F20" d="M37,10.2C37,10.2,37,10.2,37,10.2C37,10.2,37,10.2,37,10.2z"/>
	<path fill="#231F20" d="M28.1,12.9c1.3,0,0.6-1.4,0.9-2.3c1.5-0.4,0.7,1.1,1.2,1.8c1-0.4,1.7-1.7,2.4-1.7c0.1,0.2,0.2,0.3,0,0.6
		c1-1.2,3-0.1,4.2-1.5c0.1,0.1,0.1,0.3,0.2,0.4c-0.2-0.7-0.2-1.5-0.2-2c0.6,0,1.1-0.9,1.3,0c-0.4,0-0.4,0.4-0.5,0.7l0.6-0.4
		c0.5,1.4-0.8,0.5-0.8,1.5c1.2-0.5,2.6-1.6,3.5-1.2c0.2,1.4-2.1,0.5-0.9,1.7l-1.4-0.5c1.1,2.1-0.8-0.1,0.1,2.1
		c1.8,0.4,2.1-0.7,3.9-0.3c0.4-0.8-0.1-1.1,0.3-1.9c2.6-1.4,2.1,3.4,4,1.6c0.5-0.9,0.7-2.6,2.1-1.7l-0.5,1.5c1.8,0.2,1-2.2,2.9-1.2
		c-0.3,0.6-1.4,0.5-1.1,0.7c1.2,1.2,0.9-0.9,1.8-0.9l0.2,1.4c1.9-0.2,4-1.2,6.1-1.4c-0.1,0.4-0.5,0.8,0,1.2c2.6-0.7,5.7,0.2,8.2,1
		l1-1.2c0.2,0,0.4,0.5,0.2,0.8c1,0.4,0.1-0.7,0.5-1.2c0.6-0.1,0.7,0.7,0.4,1c1.8-1,5-2.1,6.9-0.9l-0.4,0.3c1.4,0.5,1.6-2.4,3-1.3
		l-0.3,0.2c3.1,0.5,6.6-0.6,9,1.2c0.5-1.7,3.1,0.8,3.3-1.6c1.8,1.2,1.3,1.6,3.8,2.4c0.7,0.1,1-1.5,1.8-1.7l0,1.2l1.1-1.3l0.6,1.5
		l0.8-0.3c-0.3-0.1-0.7-0.6-0.6-0.9c1.2-0.6,3,0.9,3,1.5l2.9-1c-0.1,0.5-0.5,0.7-0.9,1c1.5-1.3,0.3,1.3,1.7,0.1
		c-0.2-0.3,0.1-0.7,0.1-1c0.7,0.7,2.3,0.8,3.5,0.4l-0.2,0.8c2.1,0.2,4.5-0.4,6.9-0.4c-0.9-0.4-0.7-1.9,0-2l0.3,1.3
		c0.5-0.8-0.7-0.5,0.2-1.5c0.9,0.2,0.6,1.5,0.1,1.9L116,11c0.1,0.4-0.2,0.6-0.3,1.1c0.4-0.8,1.9,1.3,2.5-0.1l0.1,0.4
		c2.4,0,3.5-0.4,5.4-0.5c0-1.1,0.8-0.9,1.4-1.8c1.4,0.4,3,1.2,4.8,1.1c1.2-0.6,0.4-1,0.9-1.6c0.1,1,1.8,0.9,0.9,1.7
		c2.1-0.2,2.6-0.2,5.3-1c-0.3-0.4-0.6-0.6-0.4-1c0.5-0.2,1.1,0.4,1,0.9l-0.1,0.1c2.9-1.5,6.8,3,9.1,0.9l-0.1,0.1l2.4-1.1
		c1.1,0.2-0.7,0.8,0.2,1.4c2.6-1.7,4.1,0.2,6.3-0.9c1.7,3,5.9-0.2,8.2,1.7l-0.1-0.7c0.6-0.7,0.7,0.4,1.1,0.6c-0.1-0.6-0.6-0.6-0.3-1
		c4.9-0.9,10.2,1,15.3,1.7c1.9,0.2,1.1-3.7,3.4-2l-0.7,1.3c3.7-1.6,7.6,0.1,11.3-1.3c-0.2,0.3-0.2,0.7-0.6,0.7c0.8,1,2.9,0,2.9-0.7
		c0.6,0.1,0.1,0.7,0.5,1.1c0.8,0.6,1.9-1.2,2.4-0.3c0.1,0.2-0.2,0.3-0.4,0.4c0.5-0.5,2.4,0.1,1.9-1c1.4,0.5,2.6-0.5,3.7,0.2
		c0.7-1.2,2.4,0.6,2.6-1.2c-0.1,1.8,2.4,1.5,3.3,0.6c-0.3,0.5,0.8,0.6,0.4,1.3c1,0,1.9-0.4,1.7-1.3c1.8,2.2,3.7-1.7,4.7,1
		c2.9-1,5.7-1.6,8.3-2.1c-0.1,1.8-2.9,0.2-2.8,2.1c2.5-0.7,4-2.3,6.5-1.9c0.6,0.2-0.4,0.8-0.6,1.1c2.5-0.7,4.9,0.2,7.1-0.8
		c0,0.2-0.2,0.4-0.5,0.5c0.4-0.1,1,0.3,1-0.6l-0.4,0.2c-0.7-1.2,1.7-2.5,1.8-3.1c-0.7,2.4,2.2,0.6,1,3.6c0.3-0.2,0.7-0.5,0.6-1.1
		c0.4,0.2,0.6,0.5,0.1,1.1c1.6-0.4,1-1.3,2.4-1.3c0,0.4-0.3,0.6-0.4,1c0.7-0.8,1.4-1.5,2.7-1.2c-0.1,0.2,0.1,0.6-0.3,0.5
		c2.1-0.1,3.5-2.1,5.8-1.3c-0.7,1.7,0.8,0.6,0.9,2.1l1.2-0.4l-0.5-0.7c1.1,0,2-1.1,2.9-0.6l-0.8,0.6l2-0.3l-1.1-0.6
		c1.1-0.8-0.1-1.9,1.3-1.5c-0.3,0.2,1.1,0,1.6,0.9c0,0,0,0,0,0c0.5-0.5,1.1-1,1.9-0.6c0.2,0.5-0.2,1.7,0,2c0.5-1.2,2.5-0.3,3.2-1.7
		c-0.2,0.3-0.2,1.1-0.2,1.3l0.4-1c0.5,0.3,0.6,0.5,0.5,1.1c1.5,0.2-0.5-1.9,1.3-1.1c-0.1,0.1-0.1,0.2-0.4,0.4
		c1.8,0.4,3.4-0.6,5.1-0.1c0.5,1.5-1.4,0.4-0.9,1.6c2.4-0.3,4.9-1.8,7.2-1.4l-0.4-0.2c0.3-2.1,1.7,1,2.9,0c-0.3,0.2-0.4,1.2-0.3,0.9
		c1.6,0.3,3.2-0.5,5.6-1.2l-0.3,0.5c0.9,0.5,2.4,0.3,3.4,0.5c0.3-0.5,0.9-0.5,0.5-1.2c3.1,3.1,5.8-1.7,8.6,0.9
		c-0.3,0-0.8,0.5-0.5,0.5l2.3-0.5c-0.2-0.9-0.3-0.6-0.8-1.3c0.3-0.5,0.9-1,1.5-1c-1,0.6,0,1.5,0.5,2c-0.1-0.3,0.1-0.6,0-0.9
		c1.2,1.6,0.2-1.9,1.9-0.8l-0.1,0.5c0.6-0.2,1.2-0.9,1.9-0.8c0.3,1.1-0.7,0.5-0.7,1.4c0.9-0.1,1.8-2,2.7-1c-0.4,0.3-1,0.3-1.4,0.6
		c0.9,1.3,1,0.9,1.7,1.1l-0.1,0l1.6,0.6l-0.4-0.3c1.2-2.8,2.4-0.5,4-2.3c-1.5,1.7-0.3,1-0.4,2.2c0.4,0.3,1,0.7,0.8,1.1
		c0.7-1,1.2,0.8,2.3-0.7c0,0.4,0.8,0,0.6,1c1-0.3-0.2-0.7-0.1-1.2c1.5-1.3,3.5,1.6,5.7-0.2c1.9-0.8,2.2-2.1,3.9-2.7
		c0.6,0.6-0.5,1.4-0.5,1.4c0.9,0.6,1.6,0.5,2.5,0c-0.2,0.3,0,0.6,0.3,1.1c0.7-0.1,0.5-1.4,1.4-0.8c-0.2,0.4-0.4,1.1-0.7,1.6
		c0.8-0.4,1.7-1.1,2.5-1.4c0.2,0.7-0.5,1-0.8,1.5c1-0.3,2.5-0.6,2.8-1.7l-0.6-0.4c0.4-0.1,0.2,0.9-0.1,1.1c-0.8,0.8-1.2-0.4-1.2-0.8
		l0.6-0.2c-0.6-2.3-2.5,0.4-3.7,0.2l0.5-1.7l-1.3,1.4c-0.3-0.4-0.5-1.4,0.2-1.6c-0.9-0.8-0.8,0.6-1.6-0.3c-0.1-0.1,0-0.2,0-0.3
		l-0.9,0.5c0.2-0.3-0.1-1.2,0.4-0.9c-1.6-1-2.5,1.2-3.1,0l0.1-0.1c-2.2,0.6-0.2,1.2-1.8,2.7l-1.1-3l-0.2,1.2c-0.2,0-0.7-0.1-0.6-0.6
		c-0.8,0.8,0.1,0.5-0.3,1.3c-1.1-1.1-3,0.5-3.2-1.4c-0.4,0.9,1,0.7-0.1,1.4c-0.3-2.1-1.3,0.4-2.3-0.6c0.3-1.1,1.2-0.5,0.2-1.5
		c-0.6,1.8-1.9-0.4-2.7-0.1c0,1.5-1.8,0.6-3.2,1.1c0.1-0.5-2.6-0.8-3.9-1.3l0-0.2c-0.3,1.5-1.6,1.2-2.6,1.5c0-0.9,0.2-1.2,0.7-1.6
		l-0.9,0c-0.2,0.5-0.5,0.7-1.1,0.9l0.2-1.1c-1.2,0.1-2.4,1.3-4,0.6c-0.1,1,1.2,2.9-0.4,3.5c-0.1-0.6-0.1-1.5,0.3-1.7
		c-0.1,0.1-0.5,0.5-0.8,0.2l0.7-0.9c-0.7-0.4-0.4,0.8-0.9,0.7c0-0.8-0.4-0.6-0.3-1.2c0.1-0.1,0.5,0.3,0.7,0
		c-0.6-0.1-1.4-0.6-1.7-1.2c0.1,0.4,0,1.1-0.5,1.2c-1.2,0.1-0.4-0.9-1.1-1.4c-0.3,0.5-1.1,0-1.1,1.2c-0.4,0-0.4-0.6-0.6-0.9
		c-0.6,0.5-2.9,0.1-2.2,1.4l0.2-0.1c0,0-0.1-0.2-0.1-0.2c0,0,0,0,0,0h0c-2.1,1-4.3-0.4-6.3,0.1l0-0.3c-1.2,0.5-2.7,0.3-3.6,1.2
		c-0.4,0-0.9-0.7-0.7-1.2c-0.9,0.3-1,0.8-2.4,0.1c0.9-0.7-0.3-0.6,1-0.5c-1.2-0.3-1.5-1-2.8,0.1c0.4-1-0.9-1.3-1.5-1l0.8,0.7
		c-0.6,0.1-1.2,0.1-1.8,0l0.3-1.3c-2.5-1.6-4.5,2.8-6.4,0c-0.7,0.9,1.3,0.7,0.8,1.7c-1.1-0.2-2.3-2.1-2.7-2.1
		c-1.6-0.7-1.5,1.9-3.1,1.4c0.2,0.5,0.4,1.7-0.8,2.2c-1.1-0.2-1.4-2-0.7-2.4c0.3,0,0.4,0.1,0.4,0.3c0.4-0.2,0.9-0.4,0.4-0.9
		l-0.1,0.5c-0.6-0.5-2.1-0.4-1.8-1.2c-0.9,0.5-0.4,0.8,0.3,1c-1.5-0.7-2.3,0-3.8-0.5c0.2,0.3,0.5,0.8,0.2,0.8
		c-2.2-0.6-1,0.9-2.5,1.1c-0.9-0.7,0.3-1.7-1.2-1.1c-0.9-0.5-0.2-1.3,0.2-1.6c-1.4,0.9-2.6-0.6-3.4-0.8l0.7-0.4
		c-0.4,0.2-0.8,0.2-1.1,0.2l0.4,0.9c-0.4-0.2-0.8-0.2-0.8-0.6c-0.4,0.6,0.3,1.6-0.5,2.4c-0.6-0.5-1.7,0.5-1.9-0.7
		c1.8,0.4-0.2-1.3,1.3-1.5c-0.3,0.2-0.6,0.1-1.1,0c-0.1-0.1,0.1-0.3,0.2-0.3c-1.7-1.1-0.8,1.4-2.5,1.4c0.2-0.7-0.4-1.3-0.7-1.2
		c0.7,0,0.3,1.2-0.3,1.7c-1.1-0.6-1.2,0.4-1.8,0.3l0.7,0.3c-0.2,0.7-0.8,0.6-1.6,0.8c-0.1-0.6,0.7-0.4,0.4-0.6
		c-0.9,1.2-2-1.3-3.2-0.5c-0.6-0.5-0.1-1.3-0.6-1.7c-1.4,0.9-1.5-1-2.9-0.2c0.4,1,0.5,0.7-0.5,1.7l2.4-0.7l-1.5,1.4
		c0.7,0,1.5-0.6,1.9-0.4c-0.7,0.8-0.6,0.5-0.3,1.3c-1-1.4-1.9,0.8-3.1-0.1l0-2.4c-1.7-1.1-3,1.2-5.2,0.6l0.7,0.4
		c-0.3,0.9-1.4,0.1-2.1,0.5c0.1-0.8-0.4-1.1-0.7-1.6c0,0.6-1.6-0.1-1.8,1.5l-1-1c-1.8-0.4-2,2.2-3.7,2c0.5-0.9-0.3-1.4,0.9-2
		c-0.6,0-1.1-0.2-1.1,0.4c-0.3-0.5-1.6,1.1-2.1,0.3c-0.2,0.3-0.3,1.2-1,1.1c-0.1-0.2,0-0.4,0-0.4c0,0.4-1,0.5-0.4,1.4
		c-1.8-2.5-4.9,0.2-6.5-1.9c-1.2,0.3-2.8,0.5-3.9,0.6c0.1-0.2,0-0.4,0.2-0.3c-1.6-0.7-1,2.3-2.7,1.4c-0.9-1.3,0.9-0.7,0.4-1.2
		c-0.2-2.6-2.1,0.4-3.3-1.2l0.3-0.2c-0.9-0.9-2.2,1-3.7,0.8c0,0,0.1-0.2,0-0.4c-1,1.3-3,1.8-4.4,2.1c0.4-1,0.7-0.5,0.4-1.6
		c-0.6,0.1,0.2,1.7-1.1,1.9c-0.4-0.6-1.3-1-1.5-2.1l1.2-0.1c-0.6-1.4-1.6,0-2.2-0.2l0.1-0.6c-1.9,0.2-1.9,1.8-3.9,1.7l0.2,0.5
		c-1.1,1.6-0.9-0.9-2,0.3l-0.3-1.6C175,3.8,173.2,5,172,5.3c0.7-1.2,2.2-1.8,3.2-2.5c-0.7,0-2.4,0.1-2.8,0.9
		c0.3-0.2,0.7-0.5,0.9-0.3c-0.9,1.2-2,1.9-3.5,1.8c0.3-3.1-3.7-0.8-4.7-3.1c-2.5,1.1-5-0.5-7.9-0.3c1,2.4-0.9,0.1-0.7,2.5
		c-0.7,0.2-0.9,0.1-1,0l-2.1-1.5c-0.5-0.7,0.6-0.5,0.6-1.1c-1.5-0.2-0.6-1-1.6-1.7c0.2,0.9-0.5,1.3-1.4,0.9l1.2,1.1
		c-2.1,1.3-1.8-2.1-3.9-0.8l0.7-0.8c-1.1,0.5-4,0-5,1.9c-0.2-0.3-0.4-1,0-1.1c-2.6-0.3-5.8,2.1-7.8,0.9l0.2-0.6
		c-0.5,0.2-0.8,1.1-1.4,0.5c0-0.2,0.2-0.6,0-0.6c-0.3,0.2-1.3,1-1.9,0.7l0.5-0.7c-2.5-0.8-3.9,1.6-6,2c0-1.8-2-2.3-3-2.6l0-0.2
		c-2.9-0.2-5,1.5-7.7,2.2c-1.7-1.9-5.7-0.8-8.4-1.9c0.4,0.3-0.1,1.4-0.5,1.5c-0.6-0.4-1.8,1.2-1.7-0.4l0.2,0
		C106,0.6,104.7,1,103.7,1l-0.2,2.1c-2.7-3.1-7,1.1-8.5-1.6C94.4,2,93.6,2,93,2.5l0-1.1c-1.8-0.3-2.7-0.4-4.9-0.2l0.5-0.8
		c-1.2-0.1-1.6,3.3-2.7,3.3l-0.3-1.7c-2.2,0-4.4-1.5-6.5,0.1c0-0.2,0.1-0.7,0.5-0.8c-1,0-4-1.1-3.6,1.2c0-1.5-2.2-0.1-3.4,0.5
		l0.2-1.1c-1,1.4-1,1.8-2.4,2.2c-0.3-0.1-0.3-0.9,0.1-0.6c-1.1-0.6-0.9,1.1-2.2,0.5l0.5-0.7c-1.1-0.1-1,0.3-1.7,1.1
		c-0.7,0.4-2.1-0.3-2.3-1.3c-0.2,0.6-0.8,1.4-1.4,1.1c-0.1-0.4,0.2-0.6,0.3-0.7c-1.9-0.8-2.8,1.3-4.1,0.2c0-0.4-0.1-0.6-0.2-0.7
		c1.5,0,2.7,0.1,2.6,0.2c0-1-1.2-1.2-0.2-2.6c-1,0.8-2.6,2.5-3.8,2c-0.1-0.1-0.1-0.2-0.2-0.4l0.1-0.1c-0.3-0.1-0.5,0-0.7,0.2
		c-0.4-0.2-0.6-0.3-1-0.3c-0.1-0.8-1.4-0.5-2-0.5c0,1.1-0.7,0.9,0,1.9c-0.1-0.1,0.1-0.1,0.5-0.2c0.1,0,0.2,0,0.3-0.1
		c0,0,0,0.1,0,0.1c0.4,0,0.9-0.1,1.5-0.1c-0.5,0.6-1,1.1-1.6,0.4c-0.3,0.7-0.6,1.5-0.8,1.8c-0.8-1.6-2.4-2.4-2.6-3.4
		c-1.8,0.6-4.3,0.4-5.5,2.5c-0.5,0.3-0.6-0.6-0.8-0.9c0.3-0.2,0.7-0.2,0.8-0.5c-1,0.5-3.1,0.2-3.3,1.7c-1.3-0.7,0.7-1.4-1.1-1.1
		l0.2-0.5c-3.6-2.4-5.8,3.8-9.7,0.7c0.3,0.2,0.4,0.3,0.5,0.5C27.8,3,23.1,5.6,18.6,3.5c-1.3-0.4-1.4,0.5-2.2,1.2l-0.3-1.2l-1.3,1.4
		c-1.9,1-3.2-3-5.6-1l0.3,0.8C8.8,4.6,6.9,5.2,7.1,4.3C7,4.4,6.8,5.1,6.5,4.7l0-0.6L4.3,5.1C2.7,4.7,4.6,2.6,2.2,2.5
		C1.4,2.7-0.3,4.3,0.1,4.8c0.4,0,0.9,0.4,0.9,1L0.2,6.1C0.1,8-0.6,9.9,1.4,11.2l1.4-1.1L3.2,11L2.1,11c0.7,0.8,1.1,0.1,1.5-0.4
		c0.1,0.5,0.3,0.8,0.6,1l1.3-1.8c0.2,0.7-0.6,1.4,0.3,1.8c0.6-0.8-0.6-1.6,0.4-2.2c0.7,0.8,0.5,1.5,1.2,0.8c0.1,0.5-0.1,0.8-0.4,1
		c0.7-0.6,1.8-0.2,2.2-1.2c0.7,1,2.3-0.3,2.2,1.5c0.2-0.4,1.2-1.4,1.8-1.5c-1.1,2.1,2.4,0.1,2.1,2.4c0.9-1.9,3.1-0.8,4.6-1.9
		c-0.1,0.2-0.2,0.5-0.4,0.4c0.8,0.2,1.1,0.7,1.6,1.1c0.1-1.6,1.4-1.9,2.1-2.9c1,1.5-0.6,1.8-0.3,3.3c-0.1-1.3,1.8-1.3,1.5-2.3
		c0.8,0.9,0.7,0.5,1.1,1.8c0.1-2,0.7-0.3,1.4-1.5c1.2,1,0.3,1.8,1.6,1.2C29.2,12.2,28.1,12.9,28.1,12.9z M58.1,9.5
		C58.1,9.5,58.1,9.5,58.1,9.5c-0.3,0-0.5,0.1-0.6,0.1C57.6,9.5,57.8,9.5,58.1,9.5z M60.7,9.4c-0.3,0-0.7-0.1-1.1,0
		c-0.1-0.4,0-0.8,0.3-0.8C59.7,8.9,60.3,9.1,60.7,9.4z M55.3,1.7c0.4-0.2,0.5,0.1,0.6,0.3c-0.2,0-0.4,0.1-0.7,0.1c0,0,0,0.1,0,0.1
		C55.2,2,55.2,1.8,55.3,1.7z"/>
	<path fill="#231F20" d="M54.6,3.1c-0.1,0-0.1,0.1-0.2,0.1c0.1,0.1,0.2,0.2,0.2,0.3c0-0.1,0.1-0.2,0.1-0.4
		C54.7,3.1,54.7,3.1,54.6,3.1z"/>
	<path fill="#231F20" d="M283.5,4.8L283.5,4.8c0,0,0,0.1,0.1,0.1C283.6,4.9,283.6,4.8,283.5,4.8z"/>
	<polygon fill="#231F20" points="95.5,11.6 95.5,11.3 95.3,11.6 	"/>
	<path fill="#231F20" d="M297.4,8.7c0,0.1,0.1,0.2,0.2,0.3C297.6,8.9,297.5,8.8,297.4,8.7z"/>
	<path fill="#231F20" d="M303.4,8.9l0.8,0.4C303.9,9.1,303.7,9,303.4,8.9z"/>
	<path fill="#231F20" d="M308.1,9.5c0.1-0.2,0.1-0.3,0.1-0.5c0,0,0,0,0,0L308.1,9.5z"/>
	<path fill="#231F20" d="M234.6,10.8c-0.1,0-0.1,0-0.2,0.1C234,11.1,234.3,11,234.6,10.8z"/>
	<path fill="#231F20" d="M256.5,8.2c-0.2,0.2-0.5,0.4-0.7,0.5C256.2,8.8,256.5,8.8,256.5,8.2z"/>
	<path fill="#231F20" d="M210.2,12.1C210.2,12.1,210.2,12.1,210.2,12.1c0,0-0.1,0-0.1,0L210.2,12.1z"/>
	<path fill="#231F20" d="M254.8,8.7c0.4,0.2,0.7,0.2,1,0C255.5,8.6,255.1,8.5,254.8,8.7z"/>
	<path fill="#231F20" d="M328.1,10l0.2,0c0-0.1,0-0.1,0-0.2L328.1,10z"/>
	<path fill="#231F20" d="M328.3,9.8l0.2-0.1C328.5,9.7,328.4,9.7,328.3,9.8z"/>
	<path fill="#231F20" d="M329.1,9.4l-0.5,0.3C328.8,9.7,329,9.7,329.1,9.4z"/>
	<path fill="#231F20" d="M322,9.5l-0.1,0.4C321.9,9.8,322,9.6,322,9.5z"/>
	<path fill="#231F20" d="M320.1,9.6c0.4,0.1,1.1,0.9,1.7,0.6l0.1-0.3C321.6,10.5,320.5,8.9,320.1,9.6z"/>
	<path fill="#231F20" d="M312.4,4.5l1.6,0.3c-0.3-0.4-0.6-1,0.1-1.1C312,2.4,314.4,4.7,312.4,4.5z"/>
	<path fill="#231F20" d="M307.5,3.9c0.8-0.2,0-0.6,0-0.9C307,3.4,306.9,3.5,307.5,3.9z"/>
	<path fill="#231F20" d="M272.6,3.9l0.1-1C272.1,3,272.7,3.3,272.6,3.9z"/>
	<polygon fill="#231F20" points="266,9.2 266.6,9.8 266.9,8.9 	"/>
	<polygon fill="#231F20" points="262,1.9 262.3,1.8 261.2,2.1 	"/>
	<path fill="#231F20" d="M203.4,2.3l0.2,1.3C204.1,3.3,204.1,1.9,203.4,2.3z"/>
	<path fill="#231F20" d="M178.1,3.5c-0.3-0.6-1-1-1.4-0.4C177.3,3.2,177.8,3.7,178.1,3.5z"/>
	<polygon fill="#231F20" points="102.2,1.5 102.8,1.1 101.8,1.4 	"/>
</g>
</svg>
