<?xml version="1.0" encoding="utf-8"?>
<!-- Generator: Adobe Illustrator 18.0.0, SVG Export Plug-In . SVG Version: 6.00 Build 0)  -->
<!DOCTYPE svg PUBLIC "-//W3C//DTD SVG 1.1//EN" "http://www.w3.org/Graphics/SVG/1.1/DTD/svg11.dtd">
<svg version="1.1" xmlns="http://www.w3.org/2000/svg" xmlns:xlink="http://www.w3.org/1999/xlink" x="0px" y="0px"
	 viewBox="0 0 141.5 139" enable-background="new 0 0 141.5 139" xml:space="preserve">
<g id="globe_2">
	<g>
		<path fill="#333333" d="M141.5,69.5c0,19.3-7,35.7-20.9,49.2S90.1,139,70.7,139s-36-6.7-49.9-20.2C6.9,105.3,0,88.9,0,69.5
			c0-19.3,7-35.8,20.9-49.4C34.7,6.7,51.3,0,70.7,0s36,6.7,49.8,20.2C134.5,33.8,141.5,50.2,141.5,69.5z M137.6,69.5
			c0-17.9-6.9-33.5-20.8-46.9l-2.3,4l-11.2-3l-8.6,2.4l-4.2,11.2l-9.2,2.4l-1.2,9.5l-3.8-1.7l-3,8l2.7,14.5l-3.3,6.2l-6.3,0.3
			l1.5,8.3c-4.8-2.7-10.4-6.6-16.9-11.6l-10.9-1c-1.2-0.6-3.2-1.5-5.9-2.6c-3.2,4.1-7.4,8.7-12.5,13.8l-0.3,5.3l-2.4,4.9l-2.7-0.2
			L7.4,74.9l0.3-5.3l-3.8-0.2v0.1c0,18.3,6.6,33.8,19.8,46.6c13.1,12.7,28.7,19,47,19c18.3,0,34-6.4,47.2-19.1
			C131.1,103.3,137.6,87.8,137.6,69.5z M35.1,94.5c-3,2.7-5.9,4.9-8.9,6.5l-3.6-1.6l6.3-6.5L35.1,94.5z M67,86.7l-2.2,1.9l-2.7-1.6
			L67,86.7z M105.7,105.4c-0.7,4.6-4,9.7-9.8,15.4l-3.6,0.3l-12.2-5l-11.5,0.6c0-2.7-1-5.8-3.3-9.5c0.7-3.4,2.7-6.9,5.9-10.6
			c6.9,0.8,12.7-0.2,17.5-3l5.1,4.2l2.9-7.7C98.4,95.3,101.4,100.4,105.7,105.4z M78.2,86.7l-2.1,3l-3.8-5.1L78.2,86.7z M89.1,48.9
			c-1.4,3.2-3.9,7.5-7.6,13l-1.7,0.4c2.5-6.9,5-11.8,7.3-14.5L89.1,48.9z M87,89.1l-5.7-3.2l5.4-1.7L87,89.1z M94.5,43.3l-3.6,2.3
			h-3l3-5l2,0.4L94.5,43.3z M99.3,124.1l-1.6,2l-4.8-0.3l3.6-3L99.3,124.1z M100.9,79.5L99,84.3l-4.6-0.4L100.9,79.5z M104.6,91
			l-2.8,1.1l2-4.2L104.6,91z M125.9,101l-2.3,5.1c-3.4,2.2-6.9,4.5-10.4,6.9l-2.3,5.3l-2.1,1.5l-1.7-2.5c1.7-3.6,3.3-6.3,5-7.9
			l5-2.2c1.2-3.1,2.6-5.7,4.2-7.6l2.1,3.2L125.9,101z"/>
	</g>
</g>
</svg>
