<?xml version="1.0" encoding="utf-8"?>
<!-- Generator: Adobe Illustrator 18.0.0, SVG Export Plug-In . SVG Version: 6.00 Build 0)  -->
<!DOCTYPE svg PUBLIC "-//W3C//DTD SVG 1.1//EN" "http://www.w3.org/Graphics/SVG/1.1/DTD/svg11.dtd">
<svg version="1.1" id="Layer_1" xmlns="http://www.w3.org/2000/svg" xmlns:xlink="http://www.w3.org/1999/xlink" x="0px" y="0px"
	 viewBox="0 0 132.6 79.8" enable-background="new 0 0 132.6 79.8" xml:space="preserve">
<g>
	<path d="M70.7,38.6c0,4.1-1.2,7.7-3.6,11c-0.1,1.6-0.7,3.7-1.9,6.3c-1.1,2.4-2.1,4.1-3.1,5.2c-0.6,2.8-1.7,5.2-3.5,7.2
		c-1.9,2.1-4,3.2-6.3,3.2c-3.9,0-6.9-2.7-9.2-8c-1.7-4.2-2.6-8.4-2.6-12.9c0-5.6,0.8-10.1,2.3-13.5c1.7-3.6,4-5.4,7-5.4
		c0.8,0,1.6,0.1,2.5,0.4c1.3-2.4,2.8-3.9,4.5-4.6c0.2,0,0.2-0.2,0.2-0.4c0-1.2-0.9-3.4-2.7-6.7C48.8,9.6,43,4.4,37,4.4
		c-4.9,0-10.3,2.9-16.2,8.8C14.9,18.9,12,24.2,12,28.8c0,1.9,0.9,4,2.8,6.1c2.6,2.9,4.1,4.8,4.4,5.4c11.4,0.1,17,7.9,17,23.5
		c0,5.4-2.2,10-6.7,13.8c2.3-4.5,3.5-9,3.5-13.3c0-4.7-1.2-9.5-3.5-14.4c-2.8-5.7-6.2-8.9-10.3-9.5l0.3,0.6
		c3.7,1.1,6.8,4.5,9.2,10.3c2.1,4.9,3.2,9.6,3.2,14.1c0,3.4-0.6,6.5-1.8,9.1c-1.5,3.5-3.8,5.2-6.8,5.2c-2.8,0-5.4-1.6-8-4.7
		C13,75,11,73.2,9.4,69.7c-1.3-2.9-2-5.7-2-8.5c0-1.7,0.1-3,0.4-4.1C3.3,49.7,1,44,1,40.1c0-2.2,0.4-3.6,1.2-4.5
		c0.8-0.8,2.3-1.2,4.5-1.2c0.3,0,0.5-0.1,0.5-0.2c0-0.3-0.6-0.6-1.8-1.1H5.3C1.8,33.2,0,31,0,26.5c0-2.2,0.8-5,2.3-8.3
		c2.3-5,6.2-9.3,11.8-12.9C19.6,1.8,25.1,0,30.7,0c3.8,0,7.9,0.5,12.2,1.4c3.5,0.8,7.2,2.2,11,4.4c5,2.8,7.5,5.7,7.5,8.5
		c0,1.7-0.2,3.5-0.6,5.2l1.6,7.7C62.6,27,62.8,27,63,27c2.3,0,4.2,1.1,5.6,3.2C70,32.2,70.7,35.1,70.7,38.6z M13.9,41.7
		C11.5,37.9,9.3,36,7.1,36c-1.3,0-2,0.9-2,2.8c0,2.8,1.3,7.2,3.9,13.3C9.8,46.8,11.4,43.4,13.9,41.7z M49.8,39.9
		c-2.3,0.2-3.4,3.3-3.4,9.5c0,2.9,0.4,5.9,1.2,9.1c1.1,4.2,2.5,6.2,4.4,6.1c2-0.2,2.9-3,2.9-8.4c0-3.3-0.3-6.5-1-9.6
		C53,41.9,51.7,39.7,49.8,39.9z M53.3,51.8c0.3,3.2,0.3,6-0.1,8.2c-0.3,2-0.8,3-1.4,3.1c-0.7,0.1-1.4-0.8-2.2-2.7
		c-0.9-2.2-1.5-4.8-1.8-7.9c-0.1-1.1-0.1-2.1-0.1-3.1c0-5.2,0.7-7.9,2.1-8C51.6,41.1,52.7,44.7,53.3,51.8z M66.2,43.6
		c0.9-1.2,1.3-2.9,1.3-5.1c0-2.4-0.6-4.4-1.8-6c-1.4-2-3.4-2.9-6-2.9c-0.8,0-2.1,1.2-3.9,3.5c0.7,0.2,1.7,0.8,3.2,1.9
		c1.9,0,3.6,1.2,5,3.5C65.3,40.1,66,41.9,66.2,43.6z"/>
	<path d="M129.3,4.5c0,1-0.5,1.8-1.5,2.4c-4,2.4-8.1,4.8-12.1,7.2c-6.7,3.9-10.5,5.9-11.4,5.9c-1.9,0-2.8-1-2.8-2.9
		c0-1.1,0.5-1.9,1.5-2.4c4-2.4,8.1-4.8,12.1-7.2c6.7-3.9,10.5-5.9,11.4-5.9C128.3,1.6,129.3,2.6,129.3,4.5z M132.6,37.7
		c0,1.9-0.9,2.8-2.8,2.8h-25.5c-1.9,0-2.8-0.9-2.8-2.8c0-1.9,0.9-2.8,2.8-2.8h25.5C131.7,34.8,132.6,35.8,132.6,37.7z M129.3,71.3
		c0,2-0.9,2.9-2.8,2.9c-0.9,0-4.7-2-11.4-5.9c-4-2.4-8-4.8-12.1-7.2c-1-0.6-1.5-1.4-1.5-2.4c0-2,0.9-2.9,2.8-2.9
		c0.9,0,4.7,2,11.4,5.9c4,2.4,8,4.8,12.1,7.2C128.8,69.4,129.3,70.2,129.3,71.3z"/>
</g>
</svg>
