<?xml version="1.0" encoding="utf-8"?>
<!-- Generator: Adobe Illustrator 18.0.0, SVG Export Plug-In . SVG Version: 6.00 Build 0)  -->
<!DOCTYPE svg PUBLIC "-//W3C//DTD SVG 1.1//EN" "http://www.w3.org/Graphics/SVG/1.1/DTD/svg11.dtd">
<svg version="1.1" id="Layer_1" xmlns="http://www.w3.org/2000/svg" xmlns:xlink="http://www.w3.org/1999/xlink" x="0px" y="0px"
	 viewBox="0 0 91 93.8" enable-background="new 0 0 91 93.8" xml:space="preserve">
<g>
	<path d="M91,20.2L57.3,55.2c-3.7,4.2-7.6,6.2-11.9,6.2c-4.2,0-8.1-2.1-11.8-6.2l-6-6.3l10.7-7.8l6.2,18L82.6,6.3L47.4,37.5L39.4,22
		L23.1,44.1L0,20.2h65.1L88.2,0L74.9,20.2H91z M32.2,58.2L0,89.9v-66l21.3,22.6L2.4,71.8L25.3,51L32.2,58.2z M91,93.8H0l34.3-33.4
		c3.5,2.4,7.2,3.6,11.1,3.6s7.7-1.2,11.2-3.6L91,93.8z M91,89.9L58.8,58.2L91,23.9V89.9z"/>
</g>
</svg>
