<?xml version="1.0" encoding="utf-8"?>
<!-- Generator: Adobe Illustrator 18.0.0, SVG Export Plug-In . SVG Version: 6.00 Build 0)  -->
<!DOCTYPE svg PUBLIC "-//W3C//DTD SVG 1.1//EN" "http://www.w3.org/Graphics/SVG/1.1/DTD/svg11.dtd">
<svg version="1.1" id="Layer_1" xmlns="http://www.w3.org/2000/svg" xmlns:xlink="http://www.w3.org/1999/xlink" x="0px" y="0px"
	 viewBox="0 0 115.2 96.5" enable-background="new 0 0 115.2 96.5" xml:space="preserve">
<g>
	<path fill="#333333" d="M115.2,73.7L59.5,96.5L0,73.7V48.9l40.4-8.2l-12-16.3l7.3-1.1l8.5,1.1V0.6l8-0.6l23.6,1.7v26.8L95,30.9
		L78.9,43.2l36.4,5.6V73.7z M108.6,50.2l-32-5.2L61.2,56.7l-7.7,1.9L41.3,42l-35,7.6l53.2,12.9L69.5,60l3.1,0.7l6.1,12.3l19.8-6.2
		l2-14.7L108.6,50.2z M44.2,26.8v-1.5l-8.4-1.2L31.1,25L44.2,26.8z M92.6,31.5l-18.4-2.2V2.4L52,0.6l-5.8,0.6l21.3,1.7v27.4
		l17.9,2.3L54.6,57.2l5.9-1.3L92.6,31.5z"/>
</g>
</svg>
