<?xml version="1.0" encoding="utf-8"?>
<!-- Generator: Adobe Illustrator 18.0.0, SVG Export Plug-In . SVG Version: 6.00 Build 0)  -->
<!DOCTYPE svg PUBLIC "-//W3C//DTD SVG 1.1//EN" "http://www.w3.org/Graphics/SVG/1.1/DTD/svg11.dtd">
<svg version="1.1" id="Layer_1" xmlns="http://www.w3.org/2000/svg" xmlns:xlink="http://www.w3.org/1999/xlink" x="0px" y="0px"
	 viewBox="0 0 109.3 109.3" enable-background="new 0 0 109.3 109.3" xml:space="preserve">
<g>
	<path d="M54.7,109.3c-15.1,0-28-5.3-38.7-16C5.3,82.6,0,69.7,0,54.6c0-15.1,5.3-28,16-38.6C26.7,5.3,39.6,0,54.7,0
		c15.1,0,28,5.3,38.7,16c10.7,10.7,16,23.5,16,38.6c0,15.1-5.3,28-16,38.6C82.7,103.9,69.8,109.3,54.7,109.3z M54.7,102.3
		c13.2,0,24.4-4.6,33.7-13.9c9.3-9.3,14-20.5,14-33.7c0-13.2-4.7-24.4-14-33.7C79.1,11.6,67.8,7,54.7,7s-24.4,4.7-33.7,14
		C11.6,30.3,7,41.5,7,54.7c0,13.2,4.7,24.4,14,33.7C30.2,97.7,41.5,102.3,54.7,102.3z M22.6,57.7h4.3c3.4,15,12.7,22.6,27.8,22.6
		S79,72.7,82.5,57.7h4.4c-1.1,9.8-4.5,17.4-10.2,22.9c-5.7,5.5-13,8.3-22,8.3s-16.3-2.8-22-8.3C27,75,23.6,67.4,22.6,57.7z
		 M37.3,45.9c-2.4,0-4.4-0.8-6.1-2.5s-2.5-3.7-2.5-6.1s0.8-4.4,2.5-6.1s3.7-2.5,6.1-2.5c2.4,0,4.5,0.8,6.2,2.5s2.5,3.7,2.5,6.1
		s-0.9,4.4-2.6,6.1C41.7,45.1,39.7,45.9,37.3,45.9z M72.1,45.9c-2.4,0-4.4-0.8-6.2-2.5c-1.7-1.7-2.6-3.7-2.6-6.1s0.9-4.4,2.6-6.1
		c1.7-1.7,3.8-2.5,6.2-2.5s4.4,0.8,6.1,2.5s2.5,3.7,2.5,6.1s-0.8,4.4-2.5,6.1S74.5,45.9,72.1,45.9z"/>
</g>
</svg>
