<?xml version="1.0" encoding="utf-8"?>
<!-- Generator: Adobe Illustrator 18.0.0, SVG Export Plug-In . SVG Version: 6.00 Build 0)  -->
<!DOCTYPE svg PUBLIC "-//W3C//DTD SVG 1.1//EN" "http://www.w3.org/Graphics/SVG/1.1/DTD/svg11.dtd">
<svg version="1.1" id="Layer_1" xmlns="http://www.w3.org/2000/svg" xmlns:xlink="http://www.w3.org/1999/xlink" x="0px" y="0px"
	 viewBox="0 0 72 56.4" enable-background="new 0 0 72 56.4" xml:space="preserve">
<g>
	<path d="M72,31.1l-8.6,5.3l5.2,8.1l-7.4,0.5l3,9.4l-10.6-4.5l-4.8,5.8l-6.2-4.7L36,56.4l-6.5-5.4l-6.2,4.7l-4.8-5.8L7.9,54.4l3-9.4
		l-7.4-0.5l5.2-8.1L0,31.1L8.6,26l-5.3-7.8l7.6-0.7l-3-9.4l10.6,4.5l4.8-5.9l6.2,4.8l6.6-5.5l6.5,5.5l6.2-4.8l2.1,2.6L63.6,0
		l-7,11.6l7.6-3.5l-3,9.4l7.6,0.7L63.4,26L72,31.1z M58.5,5.6C54.2,8.8,47.7,13.9,39,20.8l-3-8L16.1,45.9l19.8-16.8l3.4,9.3
		L58.5,5.6z"/>
</g>
</svg>
