<?xml version="1.0" encoding="utf-8"?>
<!-- Generator: Adobe Illustrator 18.0.0, SVG Export Plug-In . SVG Version: 6.00 Build 0)  -->
<!DOCTYPE svg PUBLIC "-//W3C//DTD SVG 1.1//EN" "http://www.w3.org/Graphics/SVG/1.1/DTD/svg11.dtd">
<svg version="1.1" id="Layer_1" xmlns="http://www.w3.org/2000/svg" xmlns:xlink="http://www.w3.org/1999/xlink" x="0px" y="0px"
	 viewBox="0 0 95.8 95.8" enable-background="new 0 0 95.8 95.8" xml:space="preserve">
<g>
	<path d="M95.8,47.9c0,13.2-4.7,24.5-14,33.9s-20.6,14-33.9,14s-24.5-4.7-33.9-14S0,61.1,0,47.9S4.7,23.4,14,14S34.7,0,47.9,0
		s24.5,4.7,33.9,14S95.8,34.7,95.8,47.9z M93,47.9c0-12.5-4.4-23.1-13.2-31.9S60.4,2.8,47.9,2.8C35.5,2.8,24.8,7.2,16,16
		C7.2,24.8,2.8,35.4,2.8,47.9C2.8,60.4,7.2,71,16,79.8C24.8,88.6,35.5,93,47.9,93c12.5,0,23.1-4.4,31.9-13.2S93,60.4,93,47.9z
		 M34,65L20.1,79.7c-0.4,0-2-1.4-4.9-4.4c-4.1-5.1-6.9-10.8-8.4-17.2L24.7,51c0.4,1.4,0.8,2.6,1.3,3.8c1.3,2.9,2.8,5.1,4.5,6.7
		L34,65z M40.6,69.7L28.3,86.1c-1.6-0.9-3.6-2.2-6-4.1l14-15.3C37.5,68.2,39,69.2,40.6,69.7z M62.5,47.4c0,4.1-1.4,7.6-4.3,10.4
		c-2.9,2.9-6.3,4.3-10.4,4.3s-7.6-1.4-10.4-4.3S33,51.5,33,47.4c0-4,1.4-7.5,4.3-10.4s6.4-4.3,10.4-4.3s7.5,1.4,10.4,4.3
		C61.1,39.9,62.5,43.4,62.5,47.4z M52.9,48.1c0-1.4-0.5-2.5-1.5-3.6c-1-1-2.2-1.5-3.5-1.5c-1.4,0-2.6,0.5-3.6,1.5
		c-1,1-1.5,2.2-1.5,3.6c0,1.4,0.5,2.6,1.5,3.6s2.2,1.5,3.6,1.5c1.4,0,2.5-0.5,3.5-1.5S52.9,49.5,52.9,48.1z M73.5,13.8L59.6,29
		c-1.3-1.5-2.7-2.5-4.3-3L67.5,9.7C69.1,10.6,71.1,12,73.5,13.8z M88.9,37.6l-17.7,7.1c-0.4-1.4-0.9-2.6-1.4-3.8
		c-1.3-2.9-2.7-5.1-4.4-6.7l-3.6-3.5l14-14.7c0.4,0,2,1.4,4.9,4.4C84.6,25.5,87.4,31.2,88.9,37.6z"/>
</g>
</svg>
