<?xml version="1.0" encoding="utf-8"?>
<!-- Generator: Adobe Illustrator 18.0.0, SVG Export Plug-In . SVG Version: 6.00 Build 0)  -->
<!DOCTYPE svg PUBLIC "-//W3C//DTD SVG 1.1//EN" "http://www.w3.org/Graphics/SVG/1.1/DTD/svg11.dtd">
<svg version="1.1" xmlns="http://www.w3.org/2000/svg" xmlns:xlink="http://www.w3.org/1999/xlink" x="0px" y="0px"
	 viewBox="0 0 141.5 139" enable-background="new 0 0 141.5 139" xml:space="preserve">
<g id="Layer_3">
	<g>
		<path fill="#333333" d="M141.5,69c0,19.3-6.9,35.8-20.8,49.5C106.8,132.2,90.2,139,70.8,139s-36-6.7-49.8-20.2
			C7,105.3,0,88.9,0,69.5c0-19.3,7-35.8,21-49.4C34.8,6.7,51.4,0,70.8,0s35.9,6.6,49.7,19.9C134.5,33.3,141.5,49.7,141.5,69z
			 M137.8,68.6c0-18-6.7-33.4-20-46.3C104.6,9.6,89,3.2,70.9,3.2l-7.3,14.9l7.9,1.6l6.2-6.2l10.9,0.7l2.2,5.8l-6.6,6.6v3.9l4.1,0.8
			l1.9-3.1l7.2-4.5l-0.2,3.1l2.7,4.7l-3.2,3.3l2,2L94,37.1l2,3.9l-10.4,5l1.6,5.9h-3.3l-1.5-5.8L74.8,46l-1.4,2.3l-3.1-1.5l-5.1,5.1
			l4.1,4.9l-0.1,5.4l4.3,3.2l25.1,2.8l7.9,5.6l-0.9,13.9l-17.3,17.3c-1.1,1.1-2.2,4.2-3.3,9.3c-1,4.8-1.4,8.2-1.1,10.3l-2.6,3
			c-2-4-4.7-10.2-7.9-18.6c-0.8-2.9-1.5-6.5-2-10.9c-0.4-3.6-0.9-7.3-1.3-11L59,77.4L68.7,66l-4-5.8c-6.2-1.3-10.2-2.4-12-3.4
			c-1.8-1-5-3.8-9.5-8.3l3.8,7.4l-2.5,1.1l-5.9-11.1l1.2-10.3l-1.8-7.3l-5.7-5.5l-4.2-1l-3.6,2.5l-4,1C9.3,38,3.8,52.6,3.8,69.1
			c0,18.4,6.6,34.1,19.8,47c13.1,12.7,28.8,19.1,47.3,19.1s34.3-6.5,47.3-19.4S137.8,87,137.8,68.6z"/>
	</g>
</g>
</svg>
