<?xml version="1.0" encoding="utf-8"?>
<!-- Generator: Adobe Illustrator 18.0.0, SVG Export Plug-In . SVG Version: 6.00 Build 0)  -->
<!DOCTYPE svg PUBLIC "-//W3C//DTD SVG 1.1//EN" "http://www.w3.org/Graphics/SVG/1.1/DTD/svg11.dtd">
<svg version="1.1" id="Layer_1" xmlns="http://www.w3.org/2000/svg" xmlns:xlink="http://www.w3.org/1999/xlink" x="0px" y="0px"
	 viewBox="0 0 100.4 84.8" enable-background="new 0 0 100.4 84.8" xml:space="preserve">
<g>
	<path d="M100.4,84.8H6.7V34.7h44c0-4.1-0.9-6.8-2.6-8.2c-2.1-1.7-6.3-2.5-12.8-2.5H24.5c-1.2,3-2.8,4.5-4.8,4.5h-10v-1.1H0V17h9.6
		v-1h10c1.2,0,2.4,0.6,3.5,1.7c0.9,1,1.4,1.8,1.4,2.4h9.7c8.7,0,14.3,0.9,16.9,2.8c2.3,1.7,3.5,5.3,3.5,10.8v0.9h4.8V23.6
		c0-6.4-0.8-10.5-2.4-12.4C55.1,9.1,51.1,8,44.9,8h-8.6c-1.2,3-2.8,4.5-4.8,4.5h-10v-1.1h-9.6V1h9.6V0h10c1.2,0,2.4,0.6,3.5,1.8
		c0.9,0.9,1.4,1.7,1.4,2.4h8.6c6,0,10.5,1.3,13.7,4c2.9,2.4,4.4,5.6,4.4,9.7v16.9h37.4V84.8z M9.6,26.4v-8.2H1.1v8.2H9.6z
		 M13.4,62.2h-2.8c-0.1,1.1-0.2,2.9-0.3,5.6h2.8v-0.1C13,66,13.2,64.2,13.4,62.2z M13.8,75.8c-0.2-1-0.4-2.9-0.7-5.9
		c0-0.1,0.1-0.2,0.2-0.5c0.1-0.2,0.2-0.5,0.2-0.7c0-0.2-0.1-0.4-0.2-0.6h-2.8c0.3,0.2,0.4,0.4,0.4,0.7c0,0.3-0.1,0.5-0.3,0.7
		c-0.2,0.2-0.3,0.3-0.3,0.4c0.1,1.8,0.4,3.8,1,5.8H13.8z M15.1,78.1v-5.4h-0.5v4.5h-3.7v0.8H15.1z M21.5,10.3V2.2H13v8.2H21.5z
		 M20.3,62.2h-2.8c-0.1,1.1-0.2,2.9-0.4,5.6h2.8v-0.1C19.9,66,20.1,64.2,20.3,62.2z M20.6,75.8c-0.2-1-0.4-2.9-0.7-5.9
		c0-0.1,0.1-0.2,0.2-0.5c0.1-0.2,0.2-0.5,0.2-0.7c0-0.2-0.1-0.4-0.2-0.6h-2.8c0.2,0.2,0.3,0.4,0.3,0.7c0,0.3-0.1,0.5-0.3,0.7
		c-0.2,0.2-0.3,0.3-0.3,0.4c0.1,1.8,0.4,3.8,1,5.8H20.6z M21.9,78.1v-5.4h-0.5v4.5h-3.6v0.8H21.9z M34.5,39.6v-1.7H29v1.7H34.5z
		 M38.1,83.6V69.7h-2.7V50.9H30v32.7H38.1z M44.7,39.6v-1.7h-5.5v1.7H44.7z M48.3,83.6V69.7h-2.7V50.9h-3.3v18.7h-2.2v13.9H48.3z
		 M58.5,83.6V50.9h-6v18.7h-2.2v13.9H58.5z M82,44.3v-6.2H51.2v6.2H82z M68.7,83.6V69.7H66V50.9h-5.5v32.7H68.7z M78.9,83.6V69.7
		h-2.7V50.9h-3.3v18.7h-2.2v13.9H78.9z M89.1,83.6V69.7h-2.7V50.9h-3.3v18.7h-2.2v13.9H89.1z M99,83.6V50.9h-5.7v18.7h-2.2v13.9H99z
		"/>
</g>
</svg>
