<?xml version="1.0" encoding="utf-8"?>
<!-- Generator: Adobe Illustrator 18.0.0, SVG Export Plug-In . SVG Version: 6.00 Build 0)  -->
<!DOCTYPE svg PUBLIC "-//W3C//DTD SVG 1.1//EN" "http://www.w3.org/Graphics/SVG/1.1/DTD/svg11.dtd">
<svg version="1.1" id="Layer_1" xmlns="http://www.w3.org/2000/svg" xmlns:xlink="http://www.w3.org/1999/xlink" x="0px" y="0px"
	 viewBox="0 0 53.5 53.5" enable-background="new 0 0 53.5 53.5" xml:space="preserve">
<g>
	<g>
		<g>
			<defs>
				<rect id="SVGID_1_" x="0" y="0" width="53.5" height="53.5"/>
			</defs>
			<clipPath id="SVGID_2_">
				<use xlink:href="#SVGID_1_"  overflow="visible"/>
			</clipPath>
		</g>
	</g>
	<g>
		<g>
			<defs>
				<rect id="SVGID_3_" x="0" y="0" width="53.5" height="53.5"/>
			</defs>
			<clipPath id="SVGID_4_">
				<use xlink:href="#SVGID_3_"  overflow="visible"/>
			</clipPath>
			<g clip-path="url(#SVGID_4_)">
				<path fill="#333333" d="M7.5,38.4c5.5,0,9.6,5.8,6.5,11.6c-0.5,1-1.4,1.8-2.4,2.4C5.8,55.6,0,51.5,0,46
					C0,41.8,3.4,38.4,7.5,38.4L7.5,38.4z"/>
			</g>
			<g clip-path="url(#SVGID_4_)">
				<path fill="#333333" d="M0,19.5v9.8c13.4,0,24.3,10.8,24.3,24.3h9.8C34.1,34.7,18.7,19.5,0,19.5L0,19.5z M0,0v9.8
					c24.2,0,43.7,19.6,43.7,43.7h9.8C53.5,23.9,29.6,0,0,0L0,0z"/>
			</g>
		</g>
	</g>
	<g>
		<g>
			<defs>
				<rect id="SVGID_5_" x="0" y="0" width="53.5" height="53.5"/>
			</defs>
			<clipPath id="SVGID_6_">
				<use xlink:href="#SVGID_5_"  overflow="visible"/>
			</clipPath>
		</g>
	</g>
</g>
</svg>
