<?xml version="1.0" encoding="utf-8"?>
<!-- Generator: Adobe Illustrator 18.0.0, SVG Export Plug-In . SVG Version: 6.00 Build 0)  -->
<!DOCTYPE svg PUBLIC "-//W3C//DTD SVG 1.1//EN" "http://www.w3.org/Graphics/SVG/1.1/DTD/svg11.dtd">
<svg version="1.1" id="Layer_1" xmlns="http://www.w3.org/2000/svg" xmlns:xlink="http://www.w3.org/1999/xlink" x="0px" y="0px"
	 viewBox="0 0 120.1 97.8" enable-background="new 0 0 120.1 97.8" xml:space="preserve">
<g>
	<path fill="#333333" d="M37.1,97.8H0v-5.6l3-4.4v-2H0V56.7h37.1v29.1h-3.7v2l3.7,4.4V97.8z M33.4,79.6V60.4c0-0.8-0.4-1.2-1.1-1.2
		H4.9c-0.8,0-1.2,0.4-1.2,1.2v19.2c0,0.8,0.4,1.2,1.2,1.2h27.4C33,80.8,33.4,80.4,33.4,79.6z M57.5,47.1v7.4L54.7,52l-8.8,8.8
		l2.5,2.5h-7.2V56l2.5,2.5l8.8-8.9l-2.5-2.6H57.5z M78.5,41.1H41.5v-5.6l3-4.4v-2h-3V0h37.1v29.1h-3.7v2l3.7,4.4V41.1z M74.9,22.9
		V3.7c0-0.8-0.4-1.2-1.1-1.2H46.3c-0.8,0-1.2,0.4-1.2,1.2v19.2c0,0.8,0.4,1.2,1.2,1.2h27.4C74.5,24,74.9,23.6,74.9,22.9z M71.9,74.1
		l-5.4,5v-3.5H54.1v3.6l-5.8-5.1l5.8-5.2v3.5h12.4v-3.5L71.9,74.1z M78.9,63.3h-7.2l2.5-2.7l-8.8-8.8l-2.8,2.5v-7.2h7.5l-2.5,2.5
		l8.9,8.8l2.5-2.5V63.3z M120.1,97.8H83v-5.6l3-4.4v-2h-3V56.7h37.1v29.1h-3.7v2l3.7,4.4V97.8z M116.4,79.6V60.4
		c0-0.8-0.4-1.2-1.1-1.2H87.9c-0.8,0-1.2,0.4-1.2,1.2v19.2c0,0.8,0.4,1.2,1.2,1.2h27.4C116.1,80.8,116.4,80.4,116.4,79.6z"/>
</g>
</svg>
