<?xml version="1.0" encoding="utf-8"?>
<!-- Generator: Adobe Illustrator 18.0.0, SVG Export Plug-In . SVG Version: 6.00 Build 0)  -->
<!DOCTYPE svg PUBLIC "-//W3C//DTD SVG 1.1//EN" "http://www.w3.org/Graphics/SVG/1.1/DTD/svg11.dtd">
<svg version="1.1" id="Layer_1" xmlns="http://www.w3.org/2000/svg" xmlns:xlink="http://www.w3.org/1999/xlink" x="0px" y="0px"
	 viewBox="0 0 118.4 124" enable-background="new 0 0 118.4 124" xml:space="preserve">
<g>
	<path d="M118.4,46.1c0,3-0.6,6.2-1.8,9.6c-1.3,3.6-2.7,6-4.4,7.1l3.9,1.1v4.5l-3.2,1.1c-0.4,1.4-0.8,3.6-1.2,6.8
		c0,3.4,0.4,6.6,1.2,9.8l3.2,1.5v4.3L52.7,124L11.6,88.7C7,84.8,4.8,78.3,5,69.3c0-2.8,0.7-4.9,1.8-6.1c0.6-0.7,2-1.6,4.3-2.7
		c1.6-0.8,6.7-2,15.1-3.5l-11-5.1v-3.5l4.2-1.1c0.9-3.4,1.3-6.8,1.3-10.3c0-0.8-0.1-1.9-0.2-3.4L0,29.2v-3.5l2.7-0.4
		c1-2.6,1.5-5.6,1.5-9.2c0-3.6-0.5-6.7-1.5-9.4H0V4.1L36.7,0l65.1,4.2c3.1,0.2,5.7,1.6,7.7,4s3.1,5.7,3.1,9.6
		c0,5.3-2.6,9.4-7.8,12.1c4.2,0,7.1,0.5,8.5,1.5c1.5,1.1,2.7,3.3,3.7,6.5C117.9,41,118.4,43.7,118.4,46.1z M47.7,16.1
		c0.1-4.1-1-7.4-3.3-9.7C42,4,39.2,3,35.9,3.3l-32.1,3c1,3,1.5,6.2,1.5,9.8c0,3.6-0.5,7-1.5,10.3l29.7,4.8c0.6,0.1,1.1,0.1,1.7,0.1
		c3.4,0,6.3-1.4,8.7-4.3C46.3,24.3,47.6,20.6,47.7,16.1z M52.5,115.5c-1-4.9-1.5-9.9-1.5-15c0-4.2,0.5-7.9,1.5-11L16,65.5
		c-1.1-0.7-2.1-1.1-3.2-1.1c-2.8,0-4.1,2.2-4,6.7c0.1,6.3,1.5,10.4,4,12.4L52.5,115.5z M69.7,52c0-5.2-0.8-9.9-2.5-14.1l-12.1-2.2
		c-8.1,1.1-13.7,1.7-16.9,1.7c-0.8,0-1.4,0-1.8-0.1L21.8,34c0.1,1.5,0.2,2.7,0.2,3.5c0,3.5-0.6,7.3-1.8,11.5l46.9,19.7
		C68.8,63,69.7,57.4,69.7,52z M112.5,88.2c-1.2-3.8-1.7-7.6-1.7-11.5c0-1.7,0.4-4.1,1.1-7l-58,19.8c-0.9,3.1-1.4,6.8-1.4,11
		c0,5.1,0.5,10.1,1.5,15L112.5,88.2z M115.1,46.3c0-3.7-0.7-6.8-2.3-9.6c-1.5-2.6-3.1-3.8-4.9-3.6l-39.5,4.7c1.6,4.3,2.5,9,2.5,14.1
		c0,5.5-0.8,11.1-2.5,16.7l41.8-9.8c1.3-0.3,2.4-1.7,3.4-4.1C114.5,52.2,115,49.4,115.1,46.3z"/>
</g>
</svg>
