<?xml version="1.0" encoding="utf-8"?>
<!-- Generator: Adobe Illustrator 18.0.0, SVG Export Plug-In . SVG Version: 6.00 Build 0)  -->
<!DOCTYPE svg PUBLIC "-//W3C//DTD SVG 1.1//EN" "http://www.w3.org/Graphics/SVG/1.1/DTD/svg11.dtd">
<svg version="1.1" id="Layer_1" xmlns="http://www.w3.org/2000/svg" xmlns:xlink="http://www.w3.org/1999/xlink" x="0px" y="0px"
	 viewBox="0 0 96 93.6" enable-background="new 0 0 96 93.6" xml:space="preserve">
<g>
	<path d="M75.4,20c0-5.1-1-8.8-2.9-11c-1.9-2.2-5.1-3.3-9.6-3.3C54,5.6,47.2,12,42.5,24.7l-0.9,2.5c-5.5,14.9-13.6,22.4-24.1,22.4
		c-4.2,0-8.2-1.6-11.9-4.9C1.9,41.5,0,38,0,34.3c0-1.9,0.9-2.8,2.7-2.8c1.2,0,2.4,1.5,3.6,4.5c2.3,5.4,6,8.1,11.3,8.1
		c4,0,7.3-1.3,9.9-3.9c2.5-2.6,5.4-7.5,8.6-14.9l2.1-4.6C44.3,6.9,52.6,0,63.1,0C75,0,80.9,6.7,80.9,20h5.8c4,0,6.5,0.5,7.6,1.6
		c1.1,1.1,1.7,3.5,1.7,7.3V72c0,6-2.1,11.1-6.3,15.3c-4.2,4.2-9.3,6.3-15.3,6.3c-5.9,0-11-2.1-15.2-6.3C55,83.1,52.9,78,52.9,72
		V28.9c0-3.7,0.6-6.1,1.8-7.2c1.2-1.2,3.7-1.7,7.5-1.7H75.4z M76.8,22.8H62c-2.7,0-4.5,0.4-5.2,1.1c-0.8,0.7-1.1,2.3-1.1,4.9v9h21.1
		V22.8z M55.7,40.5V72c0,5.2,1.8,9.6,5.5,13.3c3.7,3.7,8.1,5.5,13.3,5.5c5.2,0,9.6-1.8,13.3-5.5c3.7-3.7,5.5-8.1,5.5-13.3V40.5H55.7
		z M79.6,22.8v15h13.7v-9c0-2.7-0.4-4.3-1.1-5c-0.7-0.7-2.5-1-5.3-1H79.6z"/>
</g>
</svg>
