<?xml version="1.0" encoding="utf-8"?>
<!-- Generator: Adobe Illustrator 18.0.0, SVG Export Plug-In . SVG Version: 6.00 Build 0)  -->
<!DOCTYPE svg PUBLIC "-//W3C//DTD SVG 1.1//EN" "http://www.w3.org/Graphics/SVG/1.1/DTD/svg11.dtd">
<svg version="1.1" id="Layer_1" xmlns="http://www.w3.org/2000/svg" xmlns:xlink="http://www.w3.org/1999/xlink" x="0px" y="0px"
	 viewBox="0 0 104.1 104.1" enable-background="new 0 0 104.1 104.1" xml:space="preserve">
<g>
	<path d="M0,52c0-14.4,5.1-26.7,15.2-36.8C25.4,5.1,37.6,0,52,0c14.4,0,26.7,5.1,36.8,15.2C99,25.4,104.1,37.6,104.1,52
		c0,14.4-5.1,26.7-15.2,36.8C78.7,99,66.4,104.1,52,104.1c-14.4,0-26.7-5.1-36.8-15.2C5.1,78.7,0,66.4,0,52z M10.4,52
		c0,11.5,4.1,21.3,12.2,29.4c8.1,8.1,17.9,12.2,29.4,12.2c11.5,0,21.3-4.1,29.4-12.2c8.1-8.1,12.2-17.9,12.2-29.4
		s-4.1-21.3-12.2-29.4C73.3,14.5,63.5,10.5,52,10.5c-11.5,0-21.3,4.1-29.4,12.2C14.5,30.8,10.4,40.6,10.4,52z M20.8,52
		c0-8.6,3-15.9,9.1-22c6.1-6.1,13.5-9.1,22.1-9.1c8.6,0,16,3,22.1,9.1c6.1,6.1,9.1,13.4,9.1,22c0,8.6-3,15.9-9.1,22
		C68,80.1,60.7,83.2,52,83.2c-8.6,0-16-3-22.1-9.1C23.9,68,20.8,60.6,20.8,52z M31.2,52c0,5.7,2,10.6,6.1,14.6c4.1,4,9,6,14.7,6
		s10.7-2,14.7-6c4.1-4,6.1-8.9,6.1-14.6c0-5.7-2-10.6-6.1-14.6c-4.1-4-9-6-14.7-6s-10.7,2-14.7,6C33.2,41.4,31.2,46.3,31.2,52z
		 M41.6,52c0-2.8,1-5.2,3.1-7.2s4.5-3,7.3-3c2.9,0,5.3,1,7.3,3s3.1,4.4,3.1,7.2c0,2.8-1,5.2-3.1,7.2s-4.5,3-7.3,3
		c-2.9,0-5.3-1-7.3-3S41.6,54.9,41.6,52z"/>
</g>
</svg>
