<?xml version="1.0" encoding="utf-8"?>
<!-- Generator: Adobe Illustrator 18.0.0, SVG Export Plug-In . SVG Version: 6.00 Build 0)  -->
<!DOCTYPE svg PUBLIC "-//W3C//DTD SVG 1.1//EN" "http://www.w3.org/Graphics/SVG/1.1/DTD/svg11.dtd">
<svg version="1.1" id="Layer_1" xmlns="http://www.w3.org/2000/svg" xmlns:xlink="http://www.w3.org/1999/xlink" x="0px" y="0px"
	 viewBox="0 0 69.4 69.4" enable-background="new 0 0 69.4 69.4" xml:space="preserve">
<g>
	<path d="M69.4,0v13.9h-4.6v6.9h4.6v48.6H0V0H69.4z M50.9,4.6H4.6v16.2h46.3V4.6z M44.1,34.7c0-2.5-0.9-4.7-2.8-6.5
		s-4.1-2.8-6.6-2.8s-4.7,0.9-6.5,2.7s-2.7,4-2.7,6.5c0,2.5,0.9,4.7,2.7,6.5c1.8,1.8,4,2.7,6.5,2.7s4.7-0.9,6.6-2.7
		C43.1,39.4,44.1,37.2,44.1,34.7z M38.2,61.3V52c0-2.3-1.2-3.5-3.5-3.5s-3.5,1.2-3.5,3.5v9.2c0,2.3,1.2,3.5,3.5,3.5
		C36.8,64.7,38,63.6,38.2,61.3z"/>
</g>
</svg>
