<?xml version="1.0" encoding="utf-8"?>
<!-- Generator: Adobe Illustrator 18.0.0, SVG Export Plug-In . SVG Version: 6.00 Build 0)  -->
<!DOCTYPE svg PUBLIC "-//W3C//DTD SVG 1.1//EN" "http://www.w3.org/Graphics/SVG/1.1/DTD/svg11.dtd">
<svg version="1.1" id="Layer_1" xmlns="http://www.w3.org/2000/svg" xmlns:xlink="http://www.w3.org/1999/xlink" x="0px" y="0px"
	 viewBox="0 0 104.1 104.1" enable-background="new 0 0 104.1 104.1" xml:space="preserve">
<g>
	<path d="M52,104.1c-14.4,0-26.7-5.1-36.8-15.2C5.1,78.7,0,66.4,0,52c0-14.4,5.1-26.7,15.3-36.8C25.4,5.1,37.7,0,52,0
		c14.4,0,26.7,5.1,36.8,15.2C99,25.4,104.1,37.6,104.1,52c0,14.4-5.1,26.7-15.2,36.8C78.7,99,66.4,104.1,52,104.1z M52,100.6
		c13.4,0,24.9-4.7,34.3-14.2s14.2-20.9,14.2-34.3c0-13.4-4.7-24.9-14.2-34.3S65.4,3.4,52,3.4c-13.4,0-24.9,4.7-34.3,14.2
		S3.4,38.6,3.4,52c0,13.4,4.7,24.9,14.2,34.3S38.6,100.6,52,100.6z M22.4,77.1l-6.9-12l18-10.4l7,12L22.4,77.1z M52,62.4
		c-2.9,0-5.3-1-7.3-3.1s-3.1-4.5-3.1-7.3c0-2.9,1-5.3,3.1-7.3s4.5-3.1,7.3-3.1c2.9,0,5.3,1,7.3,3.1s3.1,4.5,3.1,7.3
		c0,2.9-1,5.3-3.1,7.3S54.9,62.4,52,62.4z M45.1,34.7V13.9H59v20.8H45.1z M81.6,77.1l-18-10.4l6.9-12l18.1,10.4L81.6,77.1z"/>
</g>
</svg>
