<?xml version="1.0" encoding="utf-8"?>
<!-- Generator: Adobe Illustrator 18.0.0, SVG Export Plug-In . SVG Version: 6.00 Build 0)  -->
<!DOCTYPE svg PUBLIC "-//W3C//DTD SVG 1.1//EN" "http://www.w3.org/Graphics/SVG/1.1/DTD/svg11.dtd">
<svg version="1.1" xmlns="http://www.w3.org/2000/svg" xmlns:xlink="http://www.w3.org/1999/xlink" x="0px" y="0px"
	 viewBox="0 0 141.5 139" enable-background="new 0 0 141.5 139" xml:space="preserve">
<g id="globe_1">
	<g>
		<path fill="#333333" d="M141.5,69.5c0,19.3-7,35.7-20.9,49.2S90.1,139,70.8,139s-36-6.7-49.9-20.2C7,105.3,0,88.9,0,69.5
			c0-19.3,7-35.8,20.9-49.4C34.8,6.7,51.4,0,70.8,0s36,6.7,49.8,20.2C134.5,33.8,141.5,50.2,141.5,69.5z M136.8,70.1v-2.5
			c-12.6-1.4-18.9-2-18.9-2c-0.3,0-3.5,0.3-9.6,0.9l3.6,7l-9.3,3.3l-5.3-12l-1.7,1c3,5.5,4.7,10.9,5,16c-3.1,3.7-6.2,7.5-9.3,11.3
			c0,8.2-0.8,15.7-2.6,22.4l-9.3,8l-6.7-4.4c-0.6-9.4-2.1-18.8-4.7-28.3l-5.7-8l-12.7-3l-3.3-7.6L48.5,61c3.7-1.1,9-3,15.8-5.9
			c1.6,1.1,3.6,1.9,6.1,2.3c2.1,0.3,4.3,0.7,6.4,0.9c0,0,3.1,0.9,9.2,2.5c3.6,1,6.7,1.5,9.4,1.7l3-7.3h-3.6l-2.1-11.2l-9.1-0.4
			l0.6,3.6l4.6,5.8L85,51.3l0.9,2.7l-6.4,1.5l2.5-1.8l-1.8-5.2l-4.3-3.1l-3.3,3.1l-4.9-0.9l-3,5.5l-5.5-2.8l4.3-5.2l6.4-1.8l2.7-3.9
			l9.5-4.3l2.1-2.4l2.1-8.8l-5.8,2.9l2.6,1.5L79,32.1L77.5,28l-2,3.2L69.4,26l13.1-11.4h10.8l1.2-6.3c-7.3-2.7-14.8-4.1-22.6-4.1
			c-8.7,0-15.9,1.2-21.6,3.6c1.3,1,2,2.1,2,3.3c0,0.6-0.6,1-1.7,1.3c-0.8,0.1-1.7,0.3-2.5,0.4c-2.3,0.7-4.6,2-7,3.8
			c-2.4,1.8-4.5,5.1-6.5,9.8c-1.6,3.7-3.3,5.5-5.2,5.5c-1.2,0-2.2-1-3.1-2.9c-0.9-2-1.4-2.9-1.4-2.9c-1.8,0-3.4,0.5-4.8,1.4
			c-3.9,2.6-7.6,8.4-11.1,17.2c-3.5,9.1-5.3,17.7-5.3,25.9c0,18.3,6.5,33.7,19.4,46.2s28.6,18.8,46.9,18.8c18.3,0,34-6.4,47.2-19.1
			C130.2,103.8,136.8,88.3,136.8,70.1z M59.1,24.3l-2.4,1.8l-4,0.6l1.5-5.2h4L59.1,24.3z M64.9,34.6L62.8,37l-0.9-2.7l1.5-2.5
			L64.9,34.6z M73.4,34.3l-3.3,3.3L67,37.4l2.8-3.3L68,33.4l-2-3.6l1.1-2.8L73.4,34.3z M77.1,52.9l-0.3,3l-2.8-3H77.1z"/>
	</g>
</g>
</svg>
