<?xml version="1.0" encoding="utf-8"?>
<!-- Generator: Adobe Illustrator 18.0.0, SVG Export Plug-In . SVG Version: 6.00 Build 0)  -->
<!DOCTYPE svg PUBLIC "-//W3C//DTD SVG 1.1//EN" "http://www.w3.org/Graphics/SVG/1.1/DTD/svg11.dtd">
<svg version="1.1" id="Layer_1" xmlns="http://www.w3.org/2000/svg" xmlns:xlink="http://www.w3.org/1999/xlink" x="0px" y="0px"
	 viewBox="0 0 69.4 87.9" enable-background="new 0 0 69.4 87.9" xml:space="preserve">
<g>
	<path d="M60.1,78.6h-9.2v9.3H0V18.5h9.2V9.2h9.3V0h50.9v69.4h-9.2V78.6z M48.6,20.8H2.3v64.8h46.3V20.8z M9.2,30v-2.3h32.4V30H9.2z
		 M9.2,39.3V37h32.4v2.3H9.2z M9.2,48.6v-2.3h32.4v2.3H9.2z M9.2,57.8v-2.3h32.4v2.3H9.2z M9.2,67.1v-2.3h32.4v2.3H9.2z M9.2,76.3
		V74h32.4v2.3H9.2z M11.5,11.5v7h39.4v57.8h6.9V11.5H11.5z M20.8,2.3v6.9h39.3v57.8h6.9V2.3H20.8z"/>
</g>
</svg>
