<?xml version="1.0" encoding="utf-8"?>
<!-- Generator: Adobe Illustrator 18.0.0, SVG Export Plug-In . SVG Version: 6.00 Build 0)  -->
<!DOCTYPE svg PUBLIC "-//W3C//DTD SVG 1.1//EN" "http://www.w3.org/Graphics/SVG/1.1/DTD/svg11.dtd">
<svg version="1.1" id="Layer_1" xmlns="http://www.w3.org/2000/svg" xmlns:xlink="http://www.w3.org/1999/xlink" x="0px" y="0px"
	 viewBox="0 0 105.2 65.4" enable-background="new 0 0 105.2 65.4" xml:space="preserve">
<g>
	<path d="M58.4,65.4H22.3l-15-12.6C2.4,48.8,0,45,0,41.5C0,39,1,37,2.9,35.5c2-1.5,4.5-2.3,7.7-2.3c3.8,0,7.7,1.1,11.6,3.4v-1
		c0-4.3,1.2-7.9,3.7-11s5.9-5.2,10.1-6.3l28.7-7.4V4.6l18-4.6v6.3C84.4,6,86,5.8,87.6,5.8c4.7,0,8.8,1.8,12.3,5.4
		c3.5,3.6,5.3,7.8,5.3,12.5v29.8L58.4,65.4z M52.7,63.5l-22-18.4c-7.9-6.6-14.5-9.9-19.9-9.9c-2.6,0-4.7,0.6-6.3,1.7
		c-1.6,1.1-2.4,2.5-2.4,4.3c0,3.3,3,7.4,9.1,12.3l12.1,9.9H52.7z M23.3,49l-1.4,1.5h-6.1l-4.6-3.9l1-1.7l2.1,1.6h3.1l1.3-1.3
		L23.3,49z M54.2,27.9c-3.4-5.2-8.2-7.8-14.3-7.8c-4.5,0-8.3,1.5-11.2,4.5c-3,3-4.4,6.7-4.4,11.3v1.9c3.1,2,5.7,3.9,7.9,5.9l1.6,1.4
		L40,31.4L54.2,27.9z M56.4,35.9c0-1.9-0.4-3.9-1.2-6.1l-13.7,3.4l-6,13.2l7.3,6.1l3.1-13.9L56.4,35.9z M103.2,52V23.8
		c0-4.3-1.6-8.1-4.7-11.3c-3.2-3.2-6.9-4.8-11.1-4.8c-1.3,0-2.8,0.2-4.6,0.6v8.2l-11.5,3.1v24.1l-6.5,1.5V13l-20.8,5.3
		c4.4,1.4,7.9,3.6,10.4,6.6c2.5,3.1,3.7,6.7,3.7,10.8v27.7L103.2,52z M56.2,56.2V38.1l-8.8,2.2l-3,13.5l5.1,4.2L56.2,56.2z
		 M56.2,63.5v-5.3l-4.9,1.3L56.2,63.5z"/>
</g>
</svg>
